<?xml version="1.0" encoding="UTF-8" standalone="no"?>
<!DOCTYPE svg PUBLIC "-//W3C//DTD SVG 20010904//EN"
              "http://www.w3.org/TR/2001/REC-SVG-20010904/DTD/svg10.dtd">

<svg xmlns="http://www.w3.org/2000/svg"
     width="211.715mm" height="211.715mm"
     viewBox="0 0 600 600">
  <path id="Selection #1"
        fill="none" stroke="black" stroke-width="1"
        d="M 10.00,89.56
           C 10.00,89.56 60.00,89.00 60.00,89.00
             60.00,89.00 158.00,89.00 158.00,89.00
             158.00,89.00 464.00,89.00 464.00,89.00
             464.00,89.00 567.00,89.00 567.00,89.00
             577.35,89.00 594.98,85.83 599.15,98.00
             600.12,100.85 600.00,104.03 600.00,107.00
             600.00,107.00 600.00,153.00 600.00,153.00
             599.84,165.86 593.84,168.98 582.00,169.00
             582.00,169.00 135.00,169.00 135.00,169.00
             135.00,169.00 33.00,169.00 33.00,169.00
             22.65,169.00 5.02,172.17 0.85,160.00
             -0.12,157.15 0.00,153.97 0.00,151.00
             0.00,151.00 0.00,105.00 0.00,105.00
             0.10,96.90 1.98,92.39 10.00,89.56 Z
           M 9.00,259.70
           C 14.39,258.48 21.37,259.00 27.00,259.00
             27.00,259.00 57.00,259.00 57.00,259.00
             57.00,259.00 155.00,259.00 155.00,259.00
             155.00,259.00 464.00,259.00 464.00,259.00
             464.00,259.00 568.00,259.00 568.00,259.00
             578.24,259.00 595.15,255.87 599.30,268.00
             600.12,270.41 600.00,273.46 600.00,276.00
             600.00,276.00 600.00,323.00 600.00,323.00
             599.94,335.15 594.61,338.98 583.00,339.00
             583.00,339.00 136.00,339.00 136.00,339.00
             136.00,339.00 32.00,339.00 32.00,339.00
             21.76,339.00 4.85,342.13 0.70,330.00
             -0.12,327.59 0.00,324.54 0.00,322.00
             0.00,322.00 0.00,275.00 0.00,275.00
             0.04,267.14 1.48,263.17 9.00,259.70 Z
           M 10.00,429.56
           C 10.00,429.56 60.00,429.00 60.00,429.00
             60.00,429.00 158.00,429.00 158.00,429.00
             158.00,429.00 464.00,429.00 464.00,429.00
             464.00,429.00 567.00,429.00 567.00,429.00
             577.35,429.00 594.98,425.83 599.15,438.00
             600.12,440.85 600.00,444.03 600.00,447.00
             600.00,447.00 600.00,493.00 600.00,493.00
             599.84,505.86 593.84,508.98 582.00,509.00
             582.00,509.00 135.00,509.00 135.00,509.00
             135.00,509.00 33.00,509.00 33.00,509.00
             22.65,509.00 5.02,512.17 0.85,500.00
             -0.12,497.15 0.00,493.97 0.00,491.00
             0.00,491.00 0.00,445.00 0.00,445.00
             0.10,436.90 1.98,432.39 10.00,429.56 Z" />
</svg>
